<svg width="20" height="20" viewBox="0 0 20 20" fill="none" xmlns="http://www.w3.org/2000/svg">
<path fill-rule="evenodd" clip-rule="evenodd" d="M9.31282 1.82503C9.7335 1.62458 10.2353 1.61008 10.6741 1.8061C12.3604 2.55942 15.5675 4.11935 17.065 4.85189L9.98862 8.27293L2.73003 4.96159L9.31282 1.82503ZM11.001 10.0049L18.3011 6.47575C18.3194 7.96707 18.3602 11.9256 18.307 13.9204C18.293 14.4456 17.9746 14.9136 17.484 15.1542C16.3405 15.7149 12.9489 17.3718 11.001 18.2578V10.0049ZM9.00104 10.0207L1.68558 6.6834C1.6435 8.85999 1.68272 12.6489 1.69761 13.902C1.70379 14.4217 2.00794 14.9032 2.50572 15.1534C4.27323 16.0419 7.60062 17.5975 9.00104 18.2492V10.0207Z" fill="#A4A6B3"/>
</svg>
