<svg width="144" height="32" viewBox="0 0 144 32" fill="none" xmlns="http://www.w3.org/2000/svg">
<path d="M32.8807 22H40.5341V19.7159H35.6932V10.3636H32.8807V22ZM52.5199 16.1818C52.5199 12.3352 50.0881 10.2045 46.9631 10.2045C43.8267 10.2045 41.4119 12.3352 41.4119 16.1818C41.4119 20.0114 43.8267 22.1591 46.9631 22.1591C50.0881 22.1591 52.5199 20.0284 52.5199 16.1818ZM49.6449 16.1818C49.6449 18.4602 48.6449 19.6932 46.9631 19.6932C45.2869 19.6932 44.2812 18.4602 44.2812 16.1818C44.2812 13.9034 45.2869 12.6705 46.9631 12.6705C48.6449 12.6705 49.6449 13.9034 49.6449 16.1818ZM61.7983 14.1648H64.6449C64.3608 11.8466 62.2926 10.2045 59.5994 10.2045C56.4915 10.2045 54.0369 12.392 54.0369 16.1989C54.0369 19.8807 56.2983 22.1591 59.6335 22.1591C62.6278 22.1591 64.7699 20.3011 64.7699 17.1761V15.6364H59.7528V17.6875H62.0597C62.0312 18.9148 61.179 19.6932 59.6562 19.6932C57.9119 19.6932 56.9062 18.4034 56.9062 16.1648C56.9062 13.9432 57.9688 12.6705 59.6562 12.6705C60.7812 12.6705 61.5483 13.2216 61.7983 14.1648ZM77.4105 16.1818C77.4105 12.3352 74.9787 10.2045 71.8537 10.2045C68.7173 10.2045 66.3026 12.3352 66.3026 16.1818C66.3026 20.0114 68.7173 22.1591 71.8537 22.1591C74.9787 22.1591 77.4105 20.0284 77.4105 16.1818ZM74.5355 16.1818C74.5355 18.4602 73.5355 19.6932 71.8537 19.6932C70.1776 19.6932 69.1719 18.4602 69.1719 16.1818C69.1719 13.9034 70.1776 12.6705 71.8537 12.6705C73.5355 12.6705 74.5355 13.9034 74.5355 16.1818Z" fill="#94A846"/>
<path d="M78.6719 12.6477H82.206V22H84.9787V12.6477H88.5071V10.3636H78.6719V12.6477ZM89.3011 10.3636L93.5568 18.1136V22H96.3523V18.1136L100.608 10.3636H97.4659L95.0057 15.233H94.9034L92.4432 10.3636H89.3011ZM101.787 22H104.599V18.3864H106.509C109.173 18.3864 110.838 16.8068 110.838 14.392C110.838 12 109.207 10.3636 106.594 10.3636H101.787V22ZM104.599 16.1705V12.6307H105.986C107.247 12.6307 107.923 13.3125 107.923 14.392C107.923 15.4659 107.247 16.1705 105.986 16.1705H104.599ZM112.224 22H120.338V19.7159H115.037V17.3239H119.923V15.0341H115.037V12.6477H120.338V10.3636H112.224V22Z" fill="#363740"/>
<g clip-path="url(#clip0_4:1160)">
<path d="M4.64062 0V19.4758L9.39583 22.3483V7.92819L17.3021 12.5817V27.0018L22 29.702V10.2837L4.64062 0Z" fill="#94A846"/>
<path d="M0 2.2981V21.7739L4.75521 24.6464V10.2263L12.6615 14.8798V29.2999L17.3594 32.0001V12.5818L0 2.2981Z" fill="#363740"/>
</g>
<defs>
<clipPath id="clip0_4:1160">
<rect width="22" height="32" fill="white"/>
</clipPath>
</defs>
</svg>
