<svg width="18" height="18" viewBox="0 0 18 18" fill="none" xmlns="http://www.w3.org/2000/svg">
<path d="M2.25 2.25H15.75V3.75H2.25V2.25ZM2.25 8.25H4.5V9.75H2.25V8.25ZM2.25 14.25H6V15.75H2.25V14.25Z" fill="#74768B"/>
<path fill-rule="evenodd" clip-rule="evenodd" d="M10.7308 7.5C8.94646 7.5 7.5 8.94646 7.5 10.7308C7.5 12.5151 8.94646 13.9615 10.7308 13.9615C11.6223 13.9615 12.4283 13.6014 13.0136 13.0169C13.6001 12.4313 13.9615 11.624 13.9615 10.7308C13.9615 8.94646 12.5151 7.5 10.7308 7.5ZM6 10.7308C6 8.11804 8.11804 6 10.7308 6C13.3435 6 15.4615 8.11804 15.4615 10.7308C15.4615 11.767 15.1278 12.7261 14.5628 13.5053L16.2798 15.2192L15.2202 16.2808L13.5016 14.5655C12.7231 15.1288 11.7653 15.4615 10.7308 15.4615C8.11804 15.4615 6 13.3435 6 10.7308Z" fill="#74768B"/>
</svg>
