<svg width="20" height="20" viewBox="0 0 20 20" fill="none" xmlns="http://www.w3.org/2000/svg">
<path d="M8.295 1.84164C9.41911 1.60592 10.5798 1.60535 11.7042 1.83998C11.7791 2.33438 11.9644 2.80555 12.2465 3.21846C12.5285 3.63137 12.9 3.9754 13.3333 4.22498C13.7663 4.47542 14.2502 4.62503 14.7489 4.66269C15.2477 4.70034 15.7485 4.62507 16.2142 4.44248C16.9794 5.29919 17.5591 6.30501 17.9167 7.39664C17.5261 7.70879 17.2109 8.10493 16.9945 8.55564C16.7781 9.00634 16.6661 9.50001 16.6667 9.99998C16.6667 11.0533 17.155 11.9925 17.9183 12.6033C17.5586 13.694 16.9782 14.6991 16.2133 15.5558C15.7478 15.3733 15.2471 15.2981 14.7485 15.3358C14.2499 15.3735 13.7662 15.523 13.3333 15.7733C12.9004 16.0228 12.5292 16.3666 12.2473 16.7792C11.9654 17.1918 11.78 17.6626 11.705 18.1566C10.581 18.3929 9.42028 18.394 8.29583 18.16C8.22129 17.6651 8.03609 17.1935 7.75402 16.7801C7.47195 16.3667 7.10027 16.0223 6.66666 15.7725C6.23363 15.5222 5.74975 15.3727 5.25099 15.3352C4.75223 15.2977 4.25143 15.3731 3.78583 15.5558C3.0205 14.6988 2.44084 13.6927 2.08333 12.6008C2.47366 12.2888 2.78871 11.893 3.00511 11.4426C3.22151 10.9922 3.33369 10.4988 3.33333 9.99914C3.33374 9.49904 3.22142 9.00528 3.00472 8.55457C2.78802 8.10386 2.47252 7.70779 2.08167 7.39581C2.44139 6.30508 3.02176 5.30006 3.78667 4.44331C4.25221 4.62577 4.75289 4.70097 5.25149 4.66332C5.7501 4.62566 6.23381 4.47612 6.66666 4.22581C7.09962 3.97631 7.47082 3.6325 7.75271 3.2199C8.03461 2.8073 8.21996 2.33651 8.295 1.84248V1.84164ZM10 12.5C10.663 12.5 11.2989 12.2366 11.7678 11.7677C12.2366 11.2989 12.5 10.663 12.5 9.99998C12.5 9.33693 12.2366 8.70105 11.7678 8.23221C11.2989 7.76337 10.663 7.49998 10 7.49998C9.33696 7.49998 8.70107 7.76337 8.23223 8.23221C7.76339 8.70105 7.5 9.33693 7.5 9.99998C7.5 10.663 7.76339 11.2989 8.23223 11.7677C8.70107 12.2366 9.33696 12.5 10 12.5Z" fill="#A4A6B3"/>
</svg>
